<svg width="32" height="32" viewBox="0 0 32 32" fill="none" xmlns="http://www.w3.org/2000/svg">
<path d="M0 16C0 7.16344 7.16344 0 16 0C24.8366 0 32 7.16344 32 16C32 24.8366 24.8366 32 16 32C7.16344 32 0 24.8366 0 16Z" fill="#858585"/>
<path d="M16 5C18.5144 5 20.5399 6.99375 20.5399 9.46875C20.5399 11.9437 18.5144 13.9375 16 13.9375C13.4856 13.9375 11.4601 11.9437 11.4601 9.46875C11.4601 6.99375 13.4856 5 16 5ZM24.5211 23.0812C22.4956 25.4875 19.4224 27 16 27C12.5776 27 9.50444 25.4875 7.47894 23.0812C6.92018 22.4625 6.85033 21.5 7.2694 20.8125C8.87583 17.9937 12.2284 16 16 16C19.7716 16 23.1242 17.925 24.7306 20.8125C25.1497 21.5688 25.0798 22.4625 24.5211 23.0812Z" fill="white"/>
</svg>
