<svg width="20" height="20" viewBox="0 0 20 20" fill="none" xmlns="http://www.w3.org/2000/svg">
<mask id="path-1-inside-1_3281_68861" fill="white">
<path d="M16.6231 6.37724L17.0346 11.8733C17.0854 12.0865 17.1286 12.2897 17.1702 12.4852C17.4288 13.7 17.6247 14.6207 19.1654 15.832H0.832031C1.59565 14.8337 2.49486 13.1623 2.49486 11.8733L2.95209 6.2235C3.22642 3.0719 6.427 0.650554 10.1762 0.842724C13.6512 1.03489 16.3945 3.45624 16.6231 6.37724Z"/>
<path d="M9.9987 19.1654C11.3794 19.1654 12.4987 18.0461 12.4987 16.6654H7.4987C7.4987 18.0461 8.61799 19.1654 9.9987 19.1654Z"/>
</mask>
<path d="M16.6231 6.37724L17.0346 11.8733C17.0854 12.0865 17.1286 12.2897 17.1702 12.4852C17.4288 13.7 17.6247 14.6207 19.1654 15.832H0.832031C1.59565 14.8337 2.49486 13.1623 2.49486 11.8733L2.95209 6.2235C3.22642 3.0719 6.427 0.650554 10.1762 0.842724C13.6512 1.03489 16.3945 3.45624 16.6231 6.37724Z" fill="#858585"/>
<path d="M9.9987 19.1654C11.3794 19.1654 12.4987 18.0461 12.4987 16.6654H7.4987C7.4987 18.0461 8.61799 19.1654 9.9987 19.1654Z" fill="#858585"/>
<path d="M17.0346 11.8733L2.0765 12.9933L2.16564 14.1838L2.44199 15.3453L17.0346 11.8733ZM16.6231 6.37724L31.5813 5.25729L31.5794 5.23206L31.5774 5.20683L16.6231 6.37724ZM17.1702 12.4852L2.49881 15.6077L2.49883 15.6078L17.1702 12.4852ZM19.1654 15.832V30.832H62.5132L28.4364 4.04016L19.1654 15.832ZM0.832031 15.832L-11.0821 6.71869L-29.5268 30.832H0.832031V15.832ZM2.49486 11.8733L-12.4563 10.6634L-12.5051 11.2674V11.8733H2.49486ZM2.95209 6.2235L-11.9914 4.92272L-11.9954 4.96812L-11.999 5.01354L2.95209 6.2235ZM10.1762 0.842724L11.0045 -14.1344L10.9743 -14.1361L10.9441 -14.1376L10.1762 0.842724ZM12.4987 16.6654H27.4987V1.66536H12.4987V16.6654ZM7.4987 16.6654V1.66536H-7.5013V16.6654H7.4987ZM31.9928 10.7534L31.5813 5.25729L1.665 7.49718L2.0765 12.9933L31.9928 10.7534ZM31.8416 9.36269C31.8043 9.18749 31.7257 8.8148 31.6273 8.40133L2.44199 15.3453C2.44141 15.3429 2.44487 15.3573 2.45433 15.4004C2.46499 15.449 2.4766 15.5034 2.49881 15.6077L31.8416 9.36269ZM28.4364 4.04016C28.9376 4.43421 30.098 5.4916 31.0309 7.30869C31.8098 8.82567 32.0281 10.239 31.8416 9.36263L2.49883 15.6078C2.57086 15.9462 3.01642 18.4273 4.34307 21.0112C5.82381 23.8952 7.85251 26.0186 9.89435 27.6239L28.4364 4.04016ZM0.832031 30.832H19.1654V0.83203H0.832031V30.832ZM-12.5051 11.8733C-12.5051 10.5181 -12.2797 9.50205 -12.131 8.95583C-11.9731 8.37572 -11.8033 7.96907 -11.703 7.74882C-11.526 7.35965 -11.3435 7.06042 -11.0821 6.71869L12.7462 24.9454C13.7712 23.6053 14.785 21.9712 15.6027 20.1745C16.315 18.6092 17.4949 15.6007 17.4949 11.8733H-12.5051ZM-11.999 5.01354L-12.4563 10.6634L17.446 13.0833L17.9032 7.43346L-11.999 5.01354ZM10.9441 -14.1376C1.25654 -14.6342 -10.8456 -8.24056 -11.9914 4.92272L17.8956 7.52428C17.6083 10.8241 15.8318 13.1037 14.249 14.2883C12.6715 15.4689 10.9376 15.9014 9.40842 15.8231L10.9441 -14.1376ZM31.5774 5.20683C30.6416 -6.74955 20.3235 -13.619 11.0045 -14.1344L9.34798 15.8198C7.85394 15.7372 6.22541 15.162 4.79944 13.9275C3.37847 12.6974 1.90263 10.5345 1.66886 7.54764L31.5774 5.20683ZM-2.5013 16.6654C-2.5013 9.7618 3.09514 4.16536 9.9987 4.16536V34.1654C19.6637 34.1654 27.4987 26.3303 27.4987 16.6654H-2.5013ZM7.4987 31.6654H12.4987V1.66536H7.4987V31.6654ZM9.9987 4.16536C16.9023 4.16536 22.4987 9.7618 22.4987 16.6654H-7.5013C-7.5013 26.3303 0.333715 34.1654 9.9987 34.1654V4.16536Z" fill="#858585" mask="url(#path-1-inside-1_3281_68861)"/>
</svg>
